<?xml version="1.0" encoding="utf-8"?>
<!-- Generator: Adobe Illustrator 16.0.0, SVG Export Plug-In . SVG Version: 6.00 Build 0)  -->
<!DOCTYPE svg PUBLIC "-//W3C//DTD SVG 1.1//EN" "http://www.w3.org/Graphics/SVG/1.1/DTD/svg11.dtd">
<svg version="1.1" id="Layer_1" xmlns="http://www.w3.org/2000/svg" xmlns:xlink="http://www.w3.org/1999/xlink" x="0px" y="0px"
	 width="80.108px" height="80.108px" viewBox="0 0 80.108 80.108" enable-background="new 0 0 80.108 80.108" xml:space="preserve">
<g>
	<defs>
		<rect id="SVGID_127_" x="960.539" y="-369.465" width="342.741" height="289.709"/>
	</defs>
	<use xlink:href="#SVGID_127_"  overflow="visible" fill="#FFFFFF"/>
	<clipPath id="SVGID_2_">
		<use xlink:href="#SVGID_127_"  overflow="visible"/>
	</clipPath>
	<g clip-path="url(#SVGID_2_)">
		<defs>
			<rect id="SVGID_129_" x="859.352" y="-394.598" width="693.697" height="337.676"/>
		</defs>
		<clipPath id="SVGID_4_">
			<use xlink:href="#SVGID_129_"  overflow="visible"/>
		</clipPath>
		<g clip-path="url(#SVGID_4_)">
			<g>
			</g>
		</g>
	</g>
	<use xlink:href="#SVGID_127_"  overflow="visible" fill="none" stroke="#D12A2F" stroke-width="5.8756" stroke-miterlimit="10"/>
</g>
<g>
	<defs>
		<rect id="SVGID_140_" x="-146.665" y="212.568" width="345" height="300"/>
	</defs>
	<use xlink:href="#SVGID_140_"  overflow="visible" fill="#FFFFFF"/>
	<clipPath id="SVGID_6_">
		<use xlink:href="#SVGID_140_"  overflow="visible"/>
	</clipPath>
	<g clip-path="url(#SVGID_6_)">
		<defs>
			<rect id="SVGID_142_" x="-331.122" y="81.23" width="857.662" height="449.674"/>
		</defs>
		<clipPath id="SVGID_8_">
			<use xlink:href="#SVGID_142_"  overflow="visible"/>
		</clipPath>
		<g clip-path="url(#SVGID_8_)">
			<g>
				<g>
					<path fill="#D1D3D4" d="M105.077,265.442l-1.91-6.989l0.598-9.231l2.509-9.809l-3.698,9.222l-0.447,9.351
						C102.128,257.985,105.224,265.442,105.077,265.442 M106.897,237.382l1.429-0.957l1.934-5.059l-0.148-2.035L106.897,237.382z
						 M111.608,226.644l1.7-1.186l4.296-5.274l3.011-3.937l-4.257,3.109L111.608,226.644z M-279.441-374.763l-3.944,3.336
						l-0.059,5.67l2.806,6.188l1.64-1.35l-2.3-7.655l0.748-3.434l2.296-0.978L-279.441-374.763z M627.15-85.424l-1.728,1.58
						l2.983-0.932l1.341-1.339l4.533-0.232l4.176-1.266l6.737-0.139l3.161-1.804l5.881,0.254l1.455-1.37l1.769,0.329l5.534-1.735
						l2.246-2.072l-3.432,1.199l-2.177-0.999l-3.999,1.712l1.461-2.136l1.587-1.815l-0.153-1.019l-5.791,3.181l-6.46,0.077
						l-5.316,1.581l-4.287-1.043l-5.914,2.451l-4.524,0.666l-2.305,2.898l0.598,1.828L627.15-85.424z M689.664-102.341l0.809,1.587
						l2.268-0.199l1.784-1.75l2.864,0.031l-1.851-1.976l-3.434,0.037l-0.834,1.105L689.664-102.341z M-279.568-395.415
						l535.406,53.405l3.938,0.442l4.743-0.127l4.588,3.86l0.397,1.52l2.709,2.926l0.838,0.648l4.138,1.436l0.667,1.044l4.317,1.107
						l1.999,2.701l1.641-0.46l3.881-1.043l3.185,1.043l3.88-0.394l4.831,3.816h2.59l2.093,4.618l7.07,2.236l4.093,1.13l2.817,3.116
						l3.141,1.421l6.717-0.146l3.245-2.102l2.145,1.953l1.64,3.354l9.754,0.587l2.178,2.019l4.889,1.128l3.224,2.233l82.317,38.625
						l5.339,6.546l12.579,10.067l13.426,63.207l-1.767,27.548l-2.021,4.996l-2.269,4.498l-3.19,4.393l-7.902,3.784l-4.029,5.021
						l3.492,6.208l70.826-19.042l8.955-2.923l1.722-10.114l38.814-11.315l17.234-12.896l3.837-2.842l5.678-1.041l9.212-8.6
						l4.026-3.338l5.094-2.166l3.5-3.461l7.212-1.105l60.156,1.065l4.628-4.399l1.69-0.372l1.854-1.423l2.625-0.148l3.726,0.898
						l2.388-1.658l1.126-3.038l6.595-7.149l2.598-0.909l5.304-6.489l1.795-4.581l0.647-4.658l5.227-2.749l-0.241-3.51l3.582-4.618
						l7.369-8.174l1.575-3.319l3.49-3.414l1.263-0.367l2.438,1.729l2.892,2.749l4.328-1.223l5.641,1.493l1.772-1.629l8.027,7.727
						l0.304,6.702l-4.446,25.995l-1.044,2.955l1.792,0.454l1.312,2.373l1.786,2.226l-0.145,3.422l-0.452,2.072l0.452,1.918
						l-1.047,1.795l0.98,1.348l0.211,0.079l-0.095-0.013l7.74,4.453l-1.409,4.62l2.896,3.116l1.723-2.826l3.945,2.306l-2.781,3.425
						l-3.602,0.524l-1.431-2.466l-5.018,2.864l-3.104-0.265l-3.685,2.5l-2.246,1.19l-3.141-1.327l-3.394,4.609h-2.833l-1.196-4.609
						h-4.587l-3.581,3.866l-3.852,0.582l-1.041-3.267l1.189-4.011l-5.325,6.695l-3.885,6.406l-2.383,1.622l-1.194-1.949l-2.358,4.64
						h-2.378l-0.602-4.312l-2.208,4.147l-1.941,2.494l-2.828-0.884l-0.3-2.665l-2.358,3.711h-2.235l-2.534,5.512l-7.579,5.936
						l-2.679,7.274l-2.509,3.124l-0.893,2.959l-2.092,1.637l-0.447,2.52h2.684l0.303,3.139l-7.284,6.529v1.92l5.19,2.982
						l2.242,6.656l0.599,3.442l5.933-0.162l1.636-4.588l-0.447-3.571l1.939-0.602l1.941,6.982l-2.543,4.312l-9.655,4.735
						l-2.539-0.872l0.153-2.821l-1.915-3.861l-3.841,7.12l-3.762,3.854l-2.655-0.439l0.449-2.82v-4.012l-4.179-4.443v4.754
						l-0.558,5.5l1.606,1.924l-2.353,0.893l-8.472,0.596l-5.217,1.161l-3.854-1.011l-8.168,0.577l-1.646-1.323l-2.351,0.138
						l-6.538,4.616l-4.467,0.148l-6.385,3.41l-3.634,1.2l-3.346,2.787l-0.148,2.767l-5.484,3.12l1.644,2.737l2.559,2.148
						l0.624,2.542l-2.324,2.9l0.156,1.474l-1.793,3.865l0.596,1.874l-1.554,2.604l-1.604,4.325h-1.822l-1.993,2.306l-1.799,6.167
						l-2.89,0.925l-1.583,2.369l-1.693-0.058l-0.449,2.6l-3.282,4.098l-0.36-1.111l-3.079,2.219l2.274-5.521l-1.729-1.821
						l-2.983,0.714l-4.775-4.756l-1.664-2.987l1.158-3.053l6.675-7.241l-4.467,2.284l-3.667,3.387l-1.966,3.88l0.532,4.21
						l1.845,1.956l0.513,5.612l2.033,2.167l2.65,6.867l-0.153,5.196l-3.434,7.717l-4.559,2.688l-3.308,8.294l-2.35,4.036v2.522
						l-1.199,1.645l-0.298-1.645l-0.446-1.497l-4.144,7.444l-0.454,1.92l-1.046,1.638l-0.474-4.026l1.107-4.498l2.324-3.969
						l-0.597-2.585l2.533-3.293l-0.658-0.961l3.55-1.949l-4.919,0.078l-1.399-2.902l1.251-1.947l-0.111-0.885l-1.882,0.146
						l-0.545-1.717l-1.311,1.65l-3.339-4.246l-0.085-3.877l2.892-4.274l0.979-5.867l-3.288-5.441l2.309-4.396l3.424-2.081
						l-1.036-1.347l0.979-3.887l-1.125-1.555l0.146,1.205l-1.103,3.873l-4.093,3.266l-2.687,1.934l-1.726-0.221l1.937,2.91
						l-0.741,2.397l-0.633,5.989l0.901,2.372l-0.601,2.812l0.3,4.025l-0.442,8.01l-1.201,0.304l-4.892-5.808l-4.023-0.59l-2.509-4.6
						l-1.937-0.145l-0.74-2.096l1.788-4.285l-2.984,4v3.552l2.984,1.356l2.383,3.85l4.586,1.792l4.601,5.65l2.949,1.794l0.604,3.541
						l-1.167,4.334l-2.982-0.314l-1.34-3.564l-1.906-0.891l1.758,5.031l4.471,2.839l1.167,2.808L563,0.287l-0.293,1.951
						l-4.325-0.897l5.188,4.455l-1.61,2.82l-2.509-1.205l-2.09-3.69l-5.037-0.138l-3.459-1.656l2.834,3.411l3.309,1.163l2.499,0.048
						l1.655,5.036l3.545,0.883l2.828-0.736l1.909,1.682l1.049,3.826l-1.596,3.938l-2.137-1.051l-0.156,2.04l1.709,1.698l0.742,4.48
						l-1.249,2.16h-2.688l-0.957,1.124l-5.521,1.493l-2.085,1.931l-2.592-0.885l-2.026-4.32l-1.396,0.884l-0.158,6.169l-0.74,2.385
						l4.082-1.261l8.319-1.269l1.641,0.729l0.632,6.139l1.969,0.894l0.232-2.603l2.144-4.103l1.05-0.327l1.582,3.519l-0.96,4.387
						l-1.364,0.101l-4.301,3.644l-1.48,3.04l-1.739,1.442l-2.837-1.783l-2.835,0.431l-1.604-4.438l-0.476,2.812l-2.834,1.194
						l-2.805-1.322l-2.833-0.148l2.269,2.653l4.862,0.915l1.342,2.064l-2.06,1.787l0.866,1.479l-5.486,2.374l-3.698-1.491
						l3.126,2.976l5.193,0.449l3.691-3.425l0.897,1.491l1.468,0.605l-3.848,4.446l-3.549,0.153l-0.448-1.333l-2.546,0.282
						l-1.327,1.051l-5.038,0.45l-9.667,5.782l-10.381,8.468l-3.43,6.384l-1.791,0.304l-2.053-1.35l-5.945,0.765l-3.992,3.567
						l-7.754,10.229v2.373l-3.256,2.826l-2.076-0.14l-0.3,2.672l-3.585,3.986l-2.348-0.997l-2.241,0.583l-1.053,1.895l-4.315-0.411
						l-2.21,2.979l-6.23,0.733l-1.048,2.224l-3.997-0.303l-0.74,2.503h-4.92l-1.176,1.067l1.465,1.037l-0.451,3.415l-2.8,4.021
						l-1.787,0.301l-1.788,2.521l-3.4,0.893l-3.579,5.781l-2.983,5.94v6.976l-1.014,12.777l0.598,5.793l-1.194,8.906l2.21,5.639
						l0.895,8.928l1.79,3.723l2.077,9.943l2.66,3.57l1.519,3.691l-1.821,4.771l-0.563,6.233l1.464,2.089l2.231,13.21l4.181,2.687
						l1.305,6.074l-2.379,2.384l1.074,1.487l-0.743,7.258l-1.081,1.964l0.483,3.554l-3.58,7.26l-1.941,4.917l-2.501,3.7l-0.599,5.2
						l-3.4,1.194l-3.88,1.315l-3.846-1.031l-1.967-2.512l-4.29-1.188l2.386-1.05l-4.985-4.026l0.507-3.496l-1.487-2.768
						l-3.493-0.148l-1.577-1.402l0.233-5.467l-0.59-4.152l-5.044-3.883l-0.383-2.45l1.636-1.94l0.75-3.43l3.042-2.998l-3.848,1.061
						l-1.661-1.19v1.696l-1.314,1.89l-1.058-3.817l-1.628,0.46l-0.807-2.014l-2.544-2.989l-0.298-3.961l-1.19-2.521l5.071-7.225
						l-0.175-3.787l-2.958-1.288l-1.578,1.288l0.747,1.706l-2.389,3.337l-1.105,1.039l-2.446-4.158l0.129-3.055l4.017-7.546
						l2.773-9.587l0.36-4.778l-2.681-5.157l-3.049-0.524l-1.847-2.96l0.146-1.488h-1.793l-3.004-2.183l-0.509-4.234l-1.404-0.479
						l-2.146-2.146l-2.082-7.136l-4.685-1.637l-2.684-1.5l-4.122,0.674l-2.74,2.151v0.96l-0.658,0.686l-1.729-0.742l-5.275,5.308
						l-3.792,0.435l-5.962,0.874l-0.958-1.479l0.516-1.561l0.614,1.327l0.962-0.353l-1.048-1.934l-2.03-2.892l-5.039-3.53
						l0.656-0.207l2.688,1.249l0.687-1.341l-3.877-2.74l-0.744-2.165l-1.788-0.241l-0.509,1.881l1.997,2.741l-3.133-1.786
						l-3.194-2.836h-5.275l-5.372-0.747l0.751-1.021l4.825,0.281l2.48-0.729l-0.985-1.28l-4.479-0.299l-4.499,3.196l-1.875-0.969
						l-6.181,0.819l-2.385-1.721l-2.981,1.282l-5.787-0.336l-3.281,1.347l-3.994-3.413l-0.145-2.388l0.594-2.656l-2.536-0.446
						l-1.785,3.586l-1.914,3.235l-2.978-0.597l-2.542,0.903l-4.592-0.727l-12.197,2.207l-3.401,2.982l-6.833,2.82l-3.691,3.851v2.83
						l2.648-1.033l2.39-2.383l1.316,0.275l1.482,1.956l3.579,1.476l-1.337,1.496l-6.528,2.512l0.142,3.566l1.194,2.974l6.53,2.219
						l4.895,3.716l-0.296,1.319l-3.104,0.905l-1.341,2.535l-0.153-4.018l-2.086-1.323l-2.354,0.294l-2.089-2.836l-2.985-1.187
						l-2.953-4.457l-3.724,0.312l1.792,3.408l-0.148,5.047l-3.131,1.789l-1.616-2.624l-3.395-2.45l-3.076,2.215l-2.06,2.39
						l-5.153-1.551l-2.839-1.724l-3.391,0.593l-2.153-0.948l1.608-2.104l2.75-2.153l-1.409-2.25l-4.174,0.459l-1.251-1.56v-3.074
						l-1.344-1.487l-2.807,1.034l-2.236-0.726l1.553-2.397l-2.233-0.959l-4.174,1.567l-0.298,2.092l0.656,2.533l-3.671,0.488
						l-11.866-1.194l-1.644-1.92l-9.631-2.371h-5.375l-6.943,1.489l-2.835,1.91l-2.982,0.32l-3.4,4.895l-4.619,0.589l0.74-3.718
						l-1.015-3.114l2.358-3.269l-1.497-4.308l-0.262,2.53l-4.024,3.4h-2.084l-2.208-2.945l2.348,6.078l-0.14,4.168l0.896,4.15
						l-2.657,2.233h-2.722l-6.524,5.942l-8.74,4.312l-2.686-0.148l-3.848,3.263l-2.837,0.288l3.58-3.115l-3.124-2.226l-1.911,1.041
						l-1.52-1.041l-3.852,2.226l2.238,2.076l-4.332,1.641l-2.232-1.797l0.301,5.216l-3.693,1.778l-2.09-1.323l-3.698,4.592
						l2.359,2.681l-4.152,3.255l-2.948,1.353l1.343,7.884l-2.868,3.996l-1.763,5.926l-2.381,5.06l1.786,3.091l-0.447,8.939
						l1.042,2.816l-1.328,4.444l-2.126,6.097l-1.8-0.896l-1.234-2.514l-3.735-0.915l-3.91-1.917l-6.774-2.276l-3.334-3.319
						l-2.599-1.442l-2.596,0.362l-2.44-0.93l-0.515-0.539l-1.72-2.082l0.227-5.361l-4.201-12.058l-0.324-1.252l0.027-1.034
						l0.39-3.852l0.356-3.646l-3.397-3.577l-1.941-3.431l-0.983-4.035l-3.191-1.716l-0.889-2.582l-1.705-1.121l-2.679-7.522
						l-1.05-2.842l-2.234-1.135l-0.293-4.82l-0.516-3.137l-1.104-1.801l-1.577-4.305l-3.19-4.909l-4.023-3.376l-1.759-3.024
						l-2.75-1.399l-2.658,0.478l-0.889-1.176l-1.583-0.79l-3.881,0.29l-3.546-0.53l-3.727-0.017l-1.135,2.486l-1.633,0.308
						l-0.419-0.644l-1.532-0.368l-2.383,0.853l-2.146,2.146l-2.982,5.566l-1.782,2.277l0.416,1.068l-0.454,1.769l-2.045,0.521
						l-2.924,2.338l-0.424,1.31l-1.941,0.786l-1.762-0.312l-1.218-1.417l-4.145-2.121l-3.488-1.104l-0.546-1.419l-4.199-2.129
						l-2.358-0.033l-1.369-1.418l-0.27-1.301l-0.74-1.488l-1.942-0.784l-1.312,0.059l-1.731-1.694l-1.246,0.049l0.148-1.136
						l-0.929-2.909l-2.807-3.361l-3.575-4.226v-1.505l2.354-0.586l1.221-0.898l-0.175-3.137l-2.36-2.225l-0.681-1.575l-1.197-0.238
						l-1.401-1.688l-0.449-4.588l-1.87-2.949l-2.817-1.869l-2.533-0.718l1.045-1.61l0.21-1.827l-3.128-2.625l-3.19-1.19l0.688-2.022
						l-1.882-2.753l-2.144-0.061l-0.393-1.879l-1.762-2.145l-3.28-4.709l-3.88-2.367l-33.335-1.048l-0.424,7.525l-58.93-1.77
						l-70.15-32.08l0.749-1.654l-1.04-1.765l-49.36,0.873l-0.419-3.363l1.041-5.037l-0.897-6.229l-7.129-10.847l-4.584-4.759
						l-2.687,0.592l-2.089,0.139l-1.316-0.73l0.156-3.572l-0.892-2.214l-5.074-1.489l-3.396-0.152l-5.523-2.979V49.6l-2.503-2.821
						h-5.517l-3.01-0.55l-3.29-2.006l-4.172-1.2l-7.07,0.076l-2.085-1.497l-1.105-3.415l0.894-0.625l1.043-3.335l1.495-6.264
						l-1.256-4.243l-3.365-3.792l-0.299-1.122l0.834-1.417l-1.754-1.358l-3.14-4.299l-4.32-9.203l-0.863-7.131l-3.285-2.357
						l-0.562-2.551l0.268-3.861l-1.015-4.305l0.116-1.783l1.793,0.304l2.687-2.973l-0.148-3.264l-2.24-2.235l-3.105-1.927
						l-0.891-4.016l-1.932-1.038l-0.453-3.269l1.041-3.687l-0.442-1.971l1.934-1.917l-0.45-2.524l1.465-2.061l1.82,1.172
						l1.766,3.724l3.418,1.762l-1.338-1.762l-1.34-3.13l-0.601-5.329l-1.632-1.218l0.293-2.816h1.828l1.453,1.346l3.552-1.021
						l3.726-0.928l-5.226-0.572l-1.006-1.498l-3.289-0.144l-0.439-1.621l-1.048,0.881l-2.648-1.635l-0.15,4.589v4.442l-1.047-0.561
						l-1.64,0.153l-0.746-2.087l-4.74-4.467l-1.051-2.948l1.199-2.546l-0.598-4.002l-8.619-13.213l-0.896-2.389l0.744-2.655
						l1.794-3.146l-0.445-4.134l-1.793-3.564v-1.932l2.354-3.704l0.776-4.623l-0.297-8.321l-3.283-7.565l-3.58-4.909v-4.607
						l2.242-4.737l6.111-4.153l2.056-5.512l-1.338-0.883l-0.562-2.688l2.201-2.227l2.238-4.614l0.895-8.452l-1.49-5.055l0.15-3.262
						l1.758-2.391l-2.806-4.448l0.297-5.356l2.091-7.861l-0.598-7.882l1.472-3.596l5.331-6.835l1.217-4.172l2.063-2.05l2.386-6.858
						l3.878-4.455l2.684-5.366l1.463-11l5.064-9.836l0.899-9.195l5.662-12.506l2.062-4.471l3.244-5.641l-0.444-2.966v-3.127
						l4.176-5.35l-0.186-3.277l1.345-1.008l2.39,1.757l6.981,0.312l2.958,2.084l2.523-0.464l3.73,2.221l1.911,4.626l-0.744-5.053
						l-2.086-2.674l-4.292-0.74l-3.409-2.825l-5.637-0.466l-5.671-1.459l-0.411-2.247l1.462-1.62l1.341,0.592l2.382-2.813
						l0.155-4.002l1.19-3.13l-3.285-1.344l-1.491-1.782l1.048-3.266h2.091l1.637-2.394l-0.337-1.478l-2.647-0.746l-0.301-2.651
						l0.898-5.204l-1.044-5.35l2.085-10.55l-2.237-7.572l-0.145-3.726l3.278-7.549l0.597-4.169l1.461-0.469l9.512,8.319l5.052,3.298
						l9.201,0.569l3.256,1.653l1.971,3.718l1.903-0.903l1.947,0.156l1.343,2.519l-1.196,2.371l-4.297,1.645l-3.875,3.856
						l-0.147,2.072h3.277l1.464-2.537l4.317-3.541l2.089-0.459l0.427,3.271l-3.111,2.676l-2.376,4.912l-0.152,5.051l-1.346,1.467
						l-0.567-3.096l-2.684,2.221l-0.889-1.643l-2.986,3.713l1.186,2.078l3.442,1.778l4.44-2.97l1.347-3.549l2.209-2.529l0.134-4.604
						l2.391-2.099l1.193-5.202l3.43-2.216l3.396-4.158l-1.909-2.36l-0.324-2.85l-1.317-1.171l2.365-3.258l1.342-1.637l-2.989-2.088
						l-0.565-3.401l3.554-2.678l0.447-2.815l-4.445-3.291L-279.568-395.415z"/>
				</g>
				<g>
					<path fill="#D1D3D4" d="M105.077,265.442l-1.91-6.989l0.598-9.231l2.509-9.809l-3.698,9.222l-0.447,9.351
						C102.128,257.985,105.224,265.442,105.077,265.442 M106.897,237.382l1.429-0.957l1.934-5.059l-0.148-2.035L106.897,237.382z
						 M111.608,226.644l1.7-1.186l4.296-5.274l3.011-3.937l-4.257,3.109L111.608,226.644z M-279.441-374.763l-3.944,3.336
						l-0.059,5.67l2.806,6.188l1.64-1.35l-2.3-7.655l0.748-3.434l2.296-0.978L-279.441-374.763z M627.15-85.424l-1.728,1.58
						l2.983-0.932l1.341-1.339l4.533-0.232l4.176-1.266l6.737-0.139l3.161-1.804l5.881,0.254l1.455-1.37l1.769,0.329l5.534-1.735
						l2.246-2.072l-3.432,1.199l-2.177-0.999l-3.999,1.712l1.461-2.136l1.587-1.815l-0.153-1.019l-5.791,3.181l-6.46,0.077
						l-5.316,1.581l-4.287-1.043l-5.914,2.451l-4.524,0.666l-2.305,2.898l0.598,1.828L627.15-85.424z M689.664-102.341l0.809,1.587
						l2.268-0.199l1.784-1.75l2.864,0.031l-1.851-1.976l-3.434,0.037l-0.834,1.105L689.664-102.341z M-279.568-395.415
						l535.406,53.405l3.938,0.442l4.743-0.127l4.588,3.86l0.397,1.52l2.709,2.926l0.838,0.648l4.138,1.436l0.667,1.044l4.317,1.107
						l1.999,2.701l1.641-0.46l3.881-1.043l3.185,1.043l3.88-0.394l4.831,3.816h2.59l2.093,4.618l7.07,2.236l4.093,1.13l2.817,3.116
						l3.141,1.421l6.717-0.146l3.245-2.102l2.145,1.953l1.64,3.354l9.754,0.587l2.178,2.019l4.889,1.128l3.224,2.233l82.317,38.625
						l5.339,6.546l12.579,10.067l13.426,63.207l-1.767,27.548l-2.021,4.996l-2.269,4.498l-3.19,4.393l-7.902,3.784l-4.029,5.021
						l3.492,6.208l70.826-19.042l8.955-2.923l1.722-10.114l38.814-11.315l17.234-12.896l3.837-2.842l5.678-1.041l9.212-8.6
						l4.026-3.338l5.094-2.166l3.5-3.461l7.212-1.105l60.156,1.065l4.628-4.399l1.69-0.372l1.854-1.423l2.625-0.148l3.726,0.898
						l2.388-1.658l1.126-3.038l6.595-7.149l2.598-0.909l5.304-6.489l1.795-4.581l0.647-4.658l5.227-2.749l-0.241-3.51l3.582-4.618
						l7.369-8.174l1.575-3.319l3.49-3.414l1.263-0.367l2.438,1.729l2.892,2.749l4.328-1.223l5.641,1.493l1.772-1.629l8.027,7.727
						l0.304,6.702l-4.446,25.995l-1.044,2.955l1.792,0.454l1.312,2.373l1.786,2.226l-0.145,3.422l-0.452,2.072l0.452,1.918
						l-1.047,1.795l0.98,1.348l0.211,0.079l-0.095-0.013l7.74,4.453l-1.409,4.62l2.896,3.116l1.723-2.826l3.945,2.306l-2.781,3.425
						l-3.602,0.524l-1.431-2.466l-5.018,2.864l-3.104-0.265l-3.685,2.5l-2.246,1.19l-3.141-1.327l-3.394,4.609h-2.833l-1.196-4.609
						h-4.587l-3.581,3.866l-3.852,0.582l-1.041-3.267l1.189-4.011l-5.325,6.695l-3.885,6.406l-2.383,1.622l-1.194-1.949l-2.358,4.64
						h-2.378l-0.602-4.312l-2.208,4.147l-1.941,2.494l-2.828-0.884l-0.3-2.665l-2.358,3.711h-2.235l-2.534,5.512l-7.579,5.936
						l-2.679,7.274l-2.509,3.124l-0.893,2.959l-2.092,1.637l-0.447,2.52h2.684l0.303,3.139l-7.284,6.529v1.92l5.19,2.982
						l2.242,6.656l0.599,3.442l5.933-0.162l1.636-4.588l-0.447-3.571l1.939-0.602l1.941,6.982l-2.543,4.312l-9.655,4.735
						l-2.539-0.872l0.153-2.821l-1.915-3.861l-3.841,7.12l-3.762,3.854l-2.655-0.439l0.449-2.82v-4.012l-4.179-4.443v4.754
						l-0.558,5.5l1.606,1.924l-2.353,0.893l-8.472,0.596l-5.217,1.161l-3.854-1.011l-8.168,0.577l-1.646-1.323l-2.351,0.138
						l-6.538,4.616l-4.467,0.148l-6.385,3.41l-3.634,1.2l-3.346,2.787l-0.148,2.767l-5.484,3.12l1.644,2.737l2.559,2.148
						l0.624,2.542l-2.324,2.9l0.156,1.474l-1.793,3.865l0.596,1.874l-1.554,2.604l-1.604,4.325h-1.822l-1.993,2.306l-1.799,6.167
						l-2.89,0.925l-1.583,2.369l-1.693-0.058l-0.449,2.6l-3.282,4.098l-0.36-1.111l-3.079,2.219l2.274-5.521l-1.729-1.821
						l-2.983,0.714l-4.775-4.756l-1.664-2.987l1.158-3.053l6.675-7.241l-4.467,2.284l-3.667,3.387l-1.966,3.88l0.532,4.21
						l1.845,1.956l0.513,5.612l2.033,2.167l2.65,6.867l-0.153,5.196l-3.434,7.717l-4.559,2.688l-3.308,8.294l-2.35,4.036v2.522
						l-1.199,1.645l-0.298-1.645l-0.446-1.497l-4.144,7.444l-0.454,1.92l-1.046,1.638l-0.474-4.026l1.107-4.498l2.324-3.969
						l-0.597-2.585l2.533-3.293l-0.658-0.961l3.55-1.949l-4.919,0.078l-1.399-2.902l1.251-1.947l-0.111-0.885l-1.882,0.146
						l-0.545-1.717l-1.311,1.65l-3.339-4.246l-0.085-3.877l2.892-4.274l0.979-5.867l-3.288-5.441l2.309-4.396l3.424-2.081
						l-1.036-1.347l0.979-3.887l-1.125-1.555l0.146,1.205l-1.103,3.873l-4.093,3.266l-2.687,1.934l-1.726-0.221l1.937,2.91
						l-0.741,2.397l-0.633,5.989l0.901,2.372l-0.601,2.812l0.3,4.025l-0.442,8.01l-1.201,0.304l-4.892-5.808l-4.023-0.59l-2.509-4.6
						l-1.937-0.145l-0.74-2.096l1.788-4.285l-2.984,4v3.552l2.984,1.356l2.383,3.85l4.586,1.792l4.601,5.65l2.949,1.794l0.604,3.541
						l-1.167,4.334l-2.982-0.314l-1.34-3.564l-1.906-0.891l1.758,5.031l4.471,2.839l1.167,2.808L563,0.287l-0.293,1.951
						l-4.325-0.897l5.188,4.455l-1.61,2.82l-2.509-1.205l-2.09-3.69l-5.037-0.138l-3.459-1.656l2.834,3.411l3.309,1.163l2.499,0.048
						l1.655,5.036l3.545,0.883l2.828-0.736l1.909,1.682l1.049,3.826l-1.596,3.938l-2.137-1.051l-0.156,2.04l1.709,1.698l0.742,4.48
						l-1.249,2.16h-2.688l-0.957,1.124l-5.521,1.493l-2.085,1.931l-2.592-0.885l-2.026-4.32l-1.396,0.884l-0.158,6.169l-0.74,2.385
						l4.082-1.261l8.319-1.269l1.641,0.729l0.632,6.139l1.969,0.894l0.232-2.603l2.144-4.103l1.05-0.327l1.582,3.519l-0.96,4.387
						l-1.364,0.101l-4.301,3.644l-1.48,3.04l-1.739,1.442l-2.837-1.783l-2.835,0.431l-1.604-4.438l-0.476,2.812l-2.834,1.194
						l-2.805-1.322l-2.833-0.148l2.269,2.653l4.862,0.915l1.342,2.064l-2.06,1.787l0.866,1.479l-5.486,2.374l-3.698-1.491
						l3.126,2.976l5.193,0.449l3.691-3.425l0.897,1.491l1.468,0.605l-3.848,4.446l-3.549,0.153l-0.448-1.333l-2.546,0.282
						l-1.327,1.051l-5.038,0.45l-9.667,5.782l-10.381,8.468l-3.43,6.384l-1.791,0.304l-2.053-1.35l-5.945,0.765l-3.992,3.567
						l-7.754,10.229v2.373l-3.256,2.826l-2.076-0.14l-0.3,2.672l-3.585,3.986l-2.348-0.997l-2.241,0.583l-1.053,1.895l-4.315-0.411
						l-2.21,2.979l-6.23,0.733l-1.048,2.224l-3.997-0.303l-0.74,2.503h-4.92l-1.176,1.067l1.465,1.037l-0.451,3.415l-2.8,4.021
						l-1.787,0.301l-1.788,2.521l-3.4,0.893l-3.579,5.781l-2.983,5.94v6.976l-1.014,12.777l0.598,5.793l-1.194,8.906l2.21,5.639
						l0.895,8.928l1.79,3.723l2.077,9.943l2.66,3.57l1.519,3.691l-1.821,4.771l-0.563,6.233l1.464,2.089l2.231,13.21l4.181,2.687
						l1.305,6.074l-2.379,2.384l1.074,1.487l-0.743,7.258l-1.081,1.964l0.483,3.554l-3.58,7.26l-1.941,4.917l-2.501,3.7l-0.599,5.2
						l-3.4,1.194l-3.88,1.315l-3.846-1.031l-1.967-2.512l-4.29-1.188l2.386-1.05l-4.985-4.026l0.507-3.496l-1.487-2.768
						l-3.493-0.148l-1.577-1.402l0.233-5.467l-0.59-4.152l-5.044-3.883l-0.383-2.45l1.636-1.94l0.75-3.43l3.042-2.998l-3.848,1.061
						l-1.661-1.19v1.696l-1.314,1.89l-1.058-3.817l-1.628,0.46l-0.807-2.014l-2.544-2.989l-0.298-3.961l-1.19-2.521l5.071-7.225
						l-0.175-3.787l-2.958-1.288l-1.578,1.288l0.747,1.706l-2.389,3.337l-1.105,1.039l-2.446-4.158l0.129-3.055l4.017-7.546
						l2.773-9.587l0.36-4.778l-2.681-5.157l-3.049-0.524l-1.847-2.96l0.146-1.488h-1.793l-3.004-2.183l-0.509-4.234l-1.404-0.479
						l-2.146-2.146l-2.082-7.136l-4.685-1.637l-2.684-1.5l-4.122,0.674l-2.74,2.151v0.96l-0.658,0.686l-1.729-0.742l-5.275,5.308
						l-3.792,0.435l-5.962,0.874l-0.958-1.479l0.516-1.561l0.614,1.327l0.962-0.353l-1.048-1.934l-2.03-2.892l-5.039-3.53
						l0.656-0.207l2.688,1.249l0.687-1.341l-3.877-2.74l-0.744-2.165l-1.788-0.241l-0.509,1.881l1.997,2.741l-3.133-1.786
						l-3.194-2.836h-5.275l-5.372-0.747l0.751-1.021l4.825,0.281l2.48-0.729l-0.985-1.28l-4.479-0.299l-4.499,3.196l-1.875-0.969
						l-6.181,0.819l-2.385-1.721l-2.981,1.282l-5.787-0.336l-3.281,1.347l-3.994-3.413l-0.145-2.388l0.594-2.656l-2.536-0.446
						l-1.785,3.586l-1.914,3.235l-2.978-0.597l-2.542,0.903l-4.592-0.727l-12.197,2.207l-3.401,2.982l-6.833,2.82l-3.691,3.851v2.83
						l2.648-1.033l2.39-2.383l1.316,0.275l1.482,1.956l3.579,1.476l-1.337,1.496l-6.528,2.512l0.142,3.566l1.194,2.974l6.53,2.219
						l4.895,3.716l-0.296,1.319l-3.104,0.905l-1.341,2.535l-0.153-4.018l-2.086-1.323l-2.354,0.294l-2.089-2.836l-2.985-1.187
						l-2.953-4.457l-3.724,0.312l1.792,3.408l-0.148,5.047l-3.131,1.789l-1.616-2.624l-3.395-2.45l-3.076,2.215l-2.06,2.39
						l-5.153-1.551l-2.839-1.724l-3.391,0.593l-2.153-0.948l1.608-2.104l2.75-2.153l-1.409-2.25l-4.174,0.459l-1.251-1.56v-3.074
						l-1.344-1.487l-2.807,1.034l-2.236-0.726l1.553-2.397l-2.233-0.959l-4.174,1.567l-0.298,2.092l0.656,2.533l-3.671,0.488
						l-11.866-1.194l-1.644-1.92l-9.631-2.371h-5.375l-6.943,1.489l-2.835,1.91l-2.982,0.32l-3.4,4.895l-4.619,0.589l0.74-3.718
						l-1.015-3.114l2.358-3.269l-1.497-4.308l-0.262,2.53l-4.024,3.4h-2.084l-2.208-2.945l2.348,6.078l-0.14,4.168l0.896,4.15
						l-2.657,2.233h-2.722l-6.524,5.942l-8.74,4.312l-2.686-0.148l-3.848,3.263l-2.837,0.288l3.58-3.115l-3.124-2.226l-1.911,1.041
						l-1.52-1.041l-3.852,2.226l2.238,2.076l-4.332,1.641l-2.232-1.797l0.301,5.216l-3.693,1.778l-2.09-1.323l-3.698,4.592
						l2.359,2.681l-4.152,3.255l-2.948,1.353l1.343,7.884l-2.868,3.996l-1.763,5.926l-2.381,5.06l1.786,3.091l-0.447,8.939
						l1.042,2.816l-1.328,4.444l-2.126,6.097l-1.8-0.896l-1.234-2.514l-3.735-0.915l-3.91-1.917l-6.774-2.276l-3.334-3.319
						l-2.599-1.442l-2.596,0.362l-2.44-0.93l-0.515-0.539l-1.72-2.082l0.227-5.361l-4.201-12.058l-0.324-1.252l0.027-1.034
						l0.39-3.852l0.356-3.646l-3.397-3.577l-1.941-3.431l-0.983-4.035l-3.191-1.716l-0.889-2.582l-1.705-1.121l-2.679-7.522
						l-1.05-2.842l-2.234-1.135l-0.293-4.82l-0.516-3.137l-1.104-1.801l-1.577-4.305l-3.19-4.909l-4.023-3.376l-1.759-3.024
						l-2.75-1.399l-2.658,0.478l-0.889-1.176l-1.583-0.79l-3.881,0.29l-3.546-0.53l-3.727-0.017l-1.135,2.486l-1.633,0.308
						l-0.419-0.644l-1.532-0.368l-2.383,0.853l-2.146,2.146l-2.982,5.566l-1.782,2.277l0.416,1.068l-0.454,1.769l-2.045,0.521
						l-2.924,2.338l-0.424,1.31l-1.941,0.786l-1.762-0.312l-1.218-1.417l-4.145-2.121l-3.488-1.104l-0.546-1.419l-4.199-2.129
						l-2.358-0.033l-1.369-1.418l-0.27-1.301l-0.74-1.488l-1.942-0.784l-1.312,0.059l-1.731-1.694l-1.246,0.049l0.148-1.136
						l-0.929-2.909l-2.807-3.361l-3.575-4.226v-1.505l2.354-0.586l1.221-0.898l-0.175-3.137l-2.36-2.225l-0.681-1.575l-1.197-0.238
						l-1.401-1.688l-0.449-4.588l-1.87-2.949l-2.817-1.869l-2.533-0.718l1.045-1.61l0.21-1.827l-3.128-2.625l-3.19-1.19l0.688-2.022
						l-1.882-2.753l-2.144-0.061l-0.393-1.879l-1.762-2.145l-3.28-4.709l-3.88-2.367l-33.335-1.048l-0.424,7.525l-58.93-1.77
						l-70.15-32.08l0.749-1.654l-1.04-1.765l-49.36,0.873l-0.419-3.363l1.041-5.037l-0.897-6.229l-7.129-10.847l-4.584-4.759
						l-2.687,0.592l-2.089,0.139l-1.316-0.73l0.156-3.572l-0.892-2.214l-5.074-1.489l-3.396-0.152l-5.523-2.979V49.6l-2.503-2.821
						h-5.517l-3.01-0.55l-3.29-2.006l-4.172-1.2l-7.07,0.076l-2.085-1.497l-1.105-3.415l0.894-0.625l1.043-3.335l1.495-6.264
						l-1.256-4.243l-3.365-3.792l-0.299-1.122l0.834-1.417l-1.754-1.358l-3.14-4.299l-4.32-9.203l-0.863-7.131l-3.285-2.357
						l-0.562-2.551l0.268-3.861l-1.015-4.305l0.116-1.783l1.793,0.304l2.687-2.973l-0.148-3.264l-2.24-2.235l-3.105-1.927
						l-0.891-4.016l-1.932-1.038l-0.453-3.269l1.041-3.687l-0.442-1.971l1.934-1.917l-0.45-2.524l1.465-2.061l1.82,1.172
						l1.766,3.724l3.418,1.762l-1.338-1.762l-1.34-3.13l-0.601-5.329l-1.632-1.218l0.293-2.816h1.828l1.453,1.346l3.552-1.021
						l3.726-0.928l-5.226-0.572l-1.006-1.498l-3.289-0.144l-0.439-1.621l-1.048,0.881l-2.648-1.635l-0.15,4.589v4.442l-1.047-0.561
						l-1.64,0.153l-0.746-2.087l-4.74-4.467l-1.051-2.948l1.199-2.546l-0.598-4.002l-8.619-13.213l-0.896-2.389l0.744-2.655
						l1.794-3.146l-0.445-4.134l-1.793-3.564v-1.932l2.354-3.704l0.776-4.623l-0.297-8.321l-3.283-7.565l-3.58-4.909v-4.607
						l2.242-4.737l6.111-4.153l2.056-5.512l-1.338-0.883l-0.562-2.688l2.201-2.227l2.238-4.614l0.895-8.452l-1.49-5.055l0.15-3.262
						l1.758-2.391l-2.806-4.448l0.297-5.356l2.091-7.861l-0.598-7.882l1.472-3.596l5.331-6.835l1.217-4.172l2.063-2.05l2.386-6.858
						l3.878-4.455l2.684-5.366l1.463-11l5.064-9.836l0.899-9.195l5.662-12.506l2.062-4.471l3.244-5.641l-0.444-2.966v-3.127
						l4.176-5.35l-0.186-3.277l1.345-1.008l2.39,1.757l6.981,0.312l2.958,2.084l2.523-0.464l3.73,2.221l1.911,4.626l-0.744-5.053
						l-2.086-2.674l-4.292-0.74l-3.409-2.825l-5.637-0.466l-5.671-1.459l-0.411-2.247l1.462-1.62l1.341,0.592l2.382-2.813
						l0.155-4.002l1.19-3.13l-3.285-1.344l-1.491-1.782l1.048-3.266h2.091l1.637-2.394l-0.337-1.478l-2.647-0.746l-0.301-2.651
						l0.898-5.204l-1.044-5.35l2.085-10.55l-2.237-7.572l-0.145-3.726l3.278-7.549l0.597-4.169l1.461-0.469l9.512,8.319l5.052,3.298
						l9.201,0.569l3.256,1.653l1.971,3.718l1.903-0.903l1.947,0.156l1.343,2.519l-1.196,2.371l-4.297,1.645l-3.875,3.856
						l-0.147,2.072h3.277l1.464-2.537l4.317-3.541l2.089-0.459l0.427,3.271l-3.111,2.676l-2.376,4.912l-0.152,5.051l-1.346,1.467
						l-0.567-3.096l-2.684,2.221l-0.889-1.643l-2.986,3.713l1.186,2.078l3.442,1.778l4.44-2.97l1.347-3.549l2.209-2.529l0.134-4.604
						l2.391-2.099l1.193-5.202l3.43-2.216l3.396-4.158l-1.909-2.36l-0.324-2.85l-1.317-1.171l2.365-3.258l1.342-1.637l-2.989-2.088
						l-0.565-3.401l3.554-2.678l0.447-2.815l-4.445-3.291L-279.568-395.415z"/>
				</g>
			</g>
		</g>
	</g>
</g>
<path display="none" fill="#FFFFFF" d="M64.403,44.703c2.556,0,5.221-2.011,5.924-4.465l6.743-23.604
	c0.701-2.46-0.813-4.472-3.37-4.472h-47.59c0-5.131-4.163-9.297-9.296-9.297H2.867v9.297h13.946v39.514
	c0,3.854,3.121,6.973,6.972,6.973h44.161c2.567,0,4.648-2.079,4.648-4.647c0-2.567-2.082-4.648-4.648-4.648H26.109v-4.649H64.403z
	 M26.109,21.461h42.039l-3.982,13.945H26.109V21.461z M30.758,71.432c0,3.195-2.614,5.812-5.81,5.812h-2.324
	c-3.196,0-5.812-2.616-5.812-5.812v-2.325c0-3.194,2.615-5.809,5.812-5.809h2.324c3.196,0,5.81,2.614,5.81,5.809V71.432z
	 M72.594,71.432c0,3.195-2.616,5.812-5.812,5.812h-2.325c-3.195,0-5.81-2.616-5.81-5.812v-2.325c0-3.194,2.615-5.809,5.81-5.809
	h2.325c3.195,0,5.812,2.614,5.812,5.809V71.432z"/>
<path fill="#FFFFFF" d="M67.562,14.221v57.02H21.508c-3.635,0-6.579-2.943-6.579-6.579c0-3.633,2.944-6.579,6.579-6.579h41.668
	V5.448H19.314c-4.825,0-8.772,3.949-8.772,8.772v52.633c0,4.828,3.947,8.772,8.772,8.772h52.633V14.221H67.562z M23.701,62.468
	h39.475v4.386H23.701V62.468z"/>
</svg>
