<?xml version="1.0" encoding="utf-8"?>
<!-- Generator: Adobe Illustrator 16.0.0, SVG Export Plug-In . SVG Version: 6.00 Build 0)  -->
<!DOCTYPE svg PUBLIC "-//W3C//DTD SVG 1.1//EN" "http://www.w3.org/Graphics/SVG/1.1/DTD/svg11.dtd">
<svg version="1.1" id="Layer_1" xmlns="http://www.w3.org/2000/svg" xmlns:xlink="http://www.w3.org/1999/xlink" x="0px" y="0px"
	 width="80.108px" height="80.108px" viewBox="0 0 80.108 80.108" enable-background="new 0 0 80.108 80.108" xml:space="preserve">
<g>
	<defs>
		<rect id="SVGID_91_" x="960.539" y="-258.242" width="342.741" height="289.709"/>
	</defs>
	<use xlink:href="#SVGID_91_"  overflow="visible" fill="#FFFFFF"/>
	<clipPath id="SVGID_2_">
		<use xlink:href="#SVGID_91_"  overflow="visible"/>
	</clipPath>
	<g clip-path="url(#SVGID_2_)">
		<defs>
			<rect id="SVGID_93_" x="859.352" y="-283.375" width="693.697" height="337.676"/>
		</defs>
		<clipPath id="SVGID_4_">
			<use xlink:href="#SVGID_93_"  overflow="visible"/>
		</clipPath>
		<g clip-path="url(#SVGID_4_)">
			<g>
			</g>
		</g>
	</g>
	<use xlink:href="#SVGID_91_"  overflow="visible" fill="none" stroke="#D12A2F" stroke-width="5.8756" stroke-miterlimit="10"/>
</g>
<g>
	
		<radialGradient id="SVGID_6_" cx="40.7251" cy="72.6113" r="17.3508" gradientTransform="matrix(1 0 0 0.1455 0 62.0444)" gradientUnits="userSpaceOnUse">
		<stop  offset="0" style="stop-color:#000000"/>
		<stop  offset="1" style="stop-color:#FFFFFF"/>
	</radialGradient>
	<path opacity="0.3" fill="url(#SVGID_6_)" d="M58.632,72.611c0,1.693-8.02,3.074-17.916,3.074c-9.886,0-17.898-1.381-17.898-3.074
		c0-1.695,8.013-3.074,17.898-3.074C50.613,69.537,58.632,70.916,58.632,72.611z"/>
	<path fill="#D12A2F" d="M40.059,4.422c-12.182,0-22.055,9.877-22.055,22.053c0,12.178,22.055,46.971,22.055,46.971
		s22.045-34.793,22.045-46.971C62.104,14.299,52.229,4.422,40.059,4.422z M40.059,29.373c-3.887,0-7.054-3.156-7.054-7.051
		c0-3.898,3.167-7.057,7.054-7.057c3.894,0,7.042,3.158,7.042,7.057C47.101,26.217,43.953,29.373,40.059,29.373z"/>
</g>
</svg>
